<svg xmlns="http://www.w3.org/2000/svg" width="959" height="199">
         <defs>
            <style type="text/css">
               @namespace "http://www.w3.org/2000/svg";
               .line                 {fill: none; stroke: #1F1F1F;}
               .bold-line            {stroke: #0A0A0A; shape-rendering: crispEdges; stroke-width:
               2; }
               .thin-line            {stroke: #0F0F0F; shape-rendering: crispEdges}
               .filled               {fill: #1F1F1F; stroke: none;}
               text.terminal         {font-family: Verdana, Sans-serif;
               font-size: 12px;
               fill: #0A0A0A;
               font-weight: bold;
               }
               text.nonterminal      {font-family: Verdana, Sans-serif; font-style: italic;
               font-size: 12px;
               fill: #0D0D0D;
               }
               text.regexp           {font-family: Verdana, Sans-serif;
               font-size: 12px;
               fill: #0F0F0F;
               }
               rect, circle, polygon {fill: #1F1F1F; stroke: #1F1F1F;}
               rect.terminal         {fill: #CCCCCC; stroke: #1F1F1F;}
               rect.nonterminal      {fill: #E3E3E3; stroke: #1F1F1F;}
               rect.text             {fill: none; stroke: none;}
               polygon.regexp        {fill: #EFEFEF; stroke: #1F1F1F;}

            </style>
         </defs>

         <polygon points="9 17 1 13 1 21"></polygon>
         <polygon points="17 17 9 13 9 21"></polygon>
         <rect x="31" y="3" width="118" height="32" rx="10"></rect>
         <rect x="29" y="1" width="118" height="32" class="terminal" rx="10"></rect>
         <text class="terminal" x="39" y="21">toYamlFMFile(</text><a xmlns:xlink="http://www.w3.org/1999/xlink" xlink:href="#obj" xlink:title="obj">
            <rect x="169" y="3" width="40" height="32"></rect>
            <rect x="167" y="1" width="40" height="32" class="nonterminal"></rect>
            <text class="nonterminal" x="177" y="21">obj</text></a><rect x="229" y="3" width="24" height="32" rx="10"></rect>
         <rect x="227" y="1" width="24" height="32" class="terminal" rx="10"></rect>
         <text class="terminal" x="237" y="21">,</text><a xmlns:xlink="http://www.w3.org/1999/xlink" xlink:href="#path" xlink:title="path">
            <rect x="273" y="3" width="48" height="32"></rect>
            <rect x="271" y="1" width="48" height="32" class="nonterminal"></rect>
            <text class="nonterminal" x="281" y="21">path</text></a><rect x="361" y="35" width="24" height="32" rx="10"></rect>
         <rect x="359" y="33" width="24" height="32" class="terminal" rx="10"></rect>
         <text class="terminal" x="369" y="53">,</text><a xmlns:xlink="http://www.w3.org/1999/xlink" xlink:href="#indentSize" xlink:title="indentSize">
            <rect x="405" y="35" width="86" height="32"></rect>
            <rect x="403" y="33" width="86" height="32" class="nonterminal"></rect>
            <text class="nonterminal" x="413" y="53">indentSize</text></a><rect x="531" y="67" width="24" height="32" rx="10"></rect>
         <rect x="529" y="65" width="24" height="32" class="terminal" rx="10"></rect>
         <text class="terminal" x="539" y="85">,</text><a xmlns:xlink="http://www.w3.org/1999/xlink" xlink:href="#anchorMap" xlink:title="anchorMap">
            <rect x="575" y="67" width="88" height="32"></rect>
            <rect x="573" y="65" width="88" height="32" class="nonterminal"></rect>
            <text class="nonterminal" x="583" y="85">anchorMap</text></a><rect x="703" y="99" width="24" height="32" rx="10"></rect>
         <rect x="701" y="97" width="24" height="32" class="terminal" rx="10"></rect>
         <text class="terminal" x="711" y="117">,</text><a xmlns:xlink="http://www.w3.org/1999/xlink" xlink:href="#mergeSourceMap" xlink:title="mergeSourceMap">
            <rect x="747" y="99" width="130" height="32"></rect>
            <rect x="745" y="97" width="130" height="32" class="nonterminal"></rect>
            <text class="nonterminal" x="755" y="117">mergeSourceMap</text></a><rect x="905" y="165" width="26" height="32" rx="10"></rect>
         <rect x="903" y="163" width="26" height="32" class="terminal" rx="10"></rect>
         <text class="terminal" x="913" y="183">)</text>
         <path class="line" d="m17 17 h2 m0 0 h10 m118 0 h10 m0 0 h10 m40 0 h10 m0 0 h10 m24 0 h10 m0 0 h10 m48 0 h10 m20 0 h10 m0 0 h566 m-596 0 h20 m576 0 h20 m-616 0 q10 0 10 10 m596 0 q0 -10 10 -10 m-606 10 v12 m596 0 v-12 m-596 12 q0 10 10 10 m576 0 q10 0 10 -10 m-586 10 h10 m24 0 h10 m0 0 h10 m86 0 h10 m20 0 h10 m0 0 h376 m-406 0 h20 m386 0 h20 m-426 0 q10 0 10 10 m406 0 q0 -10 10 -10 m-416 10 v12 m406 0 v-12 m-406 12 q0 10 10 10 m386 0 q10 0 10 -10 m-396 10 h10 m24 0 h10 m0 0 h10 m88 0 h10 m20 0 h10 m0 0 h184 m-214 0 h20 m194 0 h20 m-234 0 q10 0 10 10 m214 0 q0 -10 10 -10 m-224 10 v12 m214 0 v-12 m-214 12 q0 10 10 10 m194 0 q10 0 10 -10 m-204 10 h10 m24 0 h10 m0 0 h10 m130 0 h10 m62 -96 l2 0 m2 0 l2 0 m2 0 l2 0 m-76 162 l2 0 m2 0 l2 0 m2 0 l2 0 m2 0 h10 m26 0 h10 m3 0 h-3"></path>
         <polygon points="949 179 957 175 957 183"></polygon>
         <polygon points="949 179 941 175 941 183"></polygon>
</svg>