<svg xmlns="http://www.w3.org/2000/svg" width="555" height="101">
         <defs>
            <style type="text/css">
               @namespace "http://www.w3.org/2000/svg";
               .line                 {fill: none; stroke: #1F1F1F;}
               .bold-line            {stroke: #0A0A0A; shape-rendering: crispEdges; stroke-width:
               2; }
               .thin-line            {stroke: #0F0F0F; shape-rendering: crispEdges}
               .filled               {fill: #1F1F1F; stroke: none;}
               text.terminal         {font-family: Verdana, Sans-serif;
               font-size: 12px;
               fill: #0A0A0A;
               font-weight: bold;
               }
               text.nonterminal      {font-family: Verdana, Sans-serif; font-style: italic;
               font-size: 12px;
               fill: #0D0D0D;
               }
               text.regexp           {font-family: Verdana, Sans-serif;
               font-size: 12px;
               fill: #0F0F0F;
               }
               rect, circle, polygon {fill: #1F1F1F; stroke: #1F1F1F;}
               rect.terminal         {fill: #CCCCCC; stroke: #1F1F1F;}
               rect.nonterminal      {fill: #E3E3E3; stroke: #1F1F1F;}
               rect.text             {fill: none; stroke: none;}
               polygon.regexp        {fill: #EFEFEF; stroke: #1F1F1F;}

            </style>
         </defs>

         <polygon points="9 17 1 13 1 21"></polygon>
         <polygon points="17 17 9 13 9 21"></polygon>
         <rect x="31" y="3" width="48" height="32" rx="10"></rect>
         <rect x="29" y="1" width="48" height="32" class="terminal" rx="10"></rect>
         <text class="terminal" x="39" y="21">init(</text><a xmlns:xlink="http://www.w3.org/1999/xlink" xlink:href="#unescapeUnicode" xlink:title="unescapeUnicode">
            <rect x="119" y="35" width="132" height="32"></rect>
            <rect x="117" y="33" width="132" height="32" class="nonterminal"></rect>
            <text class="nonterminal" x="127" y="53">unescapeUnicode</text></a><rect x="291" y="67" width="24" height="32" rx="10"></rect>
         <rect x="289" y="65" width="24" height="32" class="terminal" rx="10"></rect>
         <text class="terminal" x="299" y="85">,</text><a xmlns:xlink="http://www.w3.org/1999/xlink" xlink:href="#preserveTags" xlink:title="preserveTags">
            <rect x="335" y="67" width="106" height="32"></rect>
            <rect x="333" y="65" width="106" height="32" class="nonterminal"></rect>
            <text class="nonterminal" x="343" y="85">preserveTags</text></a><rect x="501" y="3" width="26" height="32" rx="10"></rect>
         <rect x="499" y="1" width="26" height="32" class="terminal" rx="10"></rect>
         <text class="terminal" x="509" y="21">)</text>
         <path class="line" d="m17 17 h2 m0 0 h10 m48 0 h10 m20 0 h10 m0 0 h352 m-382 0 h20 m362 0 h20 m-402 0 q10 0 10 10 m382 0 q0 -10 10 -10 m-392 10 v12 m382 0 v-12 m-382 12 q0 10 10 10 m362 0 q10 0 10 -10 m-372 10 h10 m132 0 h10 m20 0 h10 m0 0 h160 m-190 0 h20 m170 0 h20 m-210 0 q10 0 10 10 m190 0 q0 -10 10 -10 m-200 10 v12 m190 0 v-12 m-190 12 q0 10 10 10 m170 0 q10 0 10 -10 m-180 10 h10 m24 0 h10 m0 0 h10 m106 0 h10 m40 -64 h10 m26 0 h10 m3 0 h-3"></path>
         <polygon points="545 17 553 13 553 21"></polygon>
         <polygon points="545 17 537 13 537 21"></polygon>
</svg>