<svg xmlns="http://www.w3.org/2000/svg" width="331" height="37">
         <defs>
            <style type="text/css">
               @namespace "http://www.w3.org/2000/svg";
               .line                 {fill: none; stroke: #1F1F1F;}
               .bold-line            {stroke: #0A0A0A; shape-rendering: crispEdges; stroke-width:
               2; }
               .thin-line            {stroke: #0F0F0F; shape-rendering: crispEdges}
               .filled               {fill: #1F1F1F; stroke: none;}
               text.terminal         {font-family: Verdana, Sans-serif;
               font-size: 12px;
               fill: #0A0A0A;
               font-weight: bold;
               }
               text.nonterminal      {font-family: Verdana, Sans-serif; font-style: italic;
               font-size: 12px;
               fill: #0D0D0D;
               }
               text.regexp           {font-family: Verdana, Sans-serif;
               font-size: 12px;
               fill: #0F0F0F;
               }
               rect, circle, polygon {fill: #1F1F1F; stroke: #1F1F1F;}
               rect.terminal         {fill: #CCCCCC; stroke: #1F1F1F;}
               rect.nonterminal      {fill: #E3E3E3; stroke: #1F1F1F;}
               rect.text             {fill: none; stroke: none;}
               polygon.regexp        {fill: #EFEFEF; stroke: #1F1F1F;}

            </style>
         </defs>

         <polygon points="9 17 1 13 1 21"></polygon>
         <polygon points="17 17 9 13 9 21"></polygon>
         <rect x="31" y="3" width="48" height="32" rx="10"></rect>
         <rect x="29" y="1" width="48" height="32" class="terminal" rx="10"></rect>
         <text class="terminal" x="39" y="21">init(</text><a xmlns:xlink="http://www.w3.org/1999/xlink" xlink:href="#tag" xlink:title="tag">
            <rect x="99" y="3" width="40" height="32"></rect>
            <rect x="97" y="1" width="40" height="32" class="nonterminal"></rect>
            <text class="nonterminal" x="107" y="21">tag</text></a><rect x="159" y="3" width="24" height="32" rx="10"></rect>
         <rect x="157" y="1" width="24" height="32" class="terminal" rx="10"></rect>
         <text class="terminal" x="167" y="21">,</text><a xmlns:xlink="http://www.w3.org/1999/xlink" xlink:href="#value" xlink:title="value">
            <rect x="203" y="3" width="54" height="32"></rect>
            <rect x="201" y="1" width="54" height="32" class="nonterminal"></rect>
            <text class="nonterminal" x="211" y="21">value</text></a><rect x="277" y="3" width="26" height="32" rx="10"></rect>
         <rect x="275" y="1" width="26" height="32" class="terminal" rx="10"></rect>
         <text class="terminal" x="285" y="21">)</text>
         <path class="line" d="m17 17 h2 m0 0 h10 m48 0 h10 m0 0 h10 m40 0 h10 m0 0 h10 m24 0 h10 m0 0 h10 m54 0 h10 m0 0 h10 m26 0 h10 m3 0 h-3"></path>
         <polygon points="321 17 329 13 329 21"></polygon>
         <polygon points="321 17 313 13 313 21"></polygon>
</svg>