<svg xmlns="http://www.w3.org/2000/svg" width="887" height="231">
         <defs>
            <style type="text/css">
               @namespace "http://www.w3.org/2000/svg";
               .line                 {fill: none; stroke: #1F1F1F;}
               .bold-line            {stroke: #0A0A0A; shape-rendering: crispEdges; stroke-width:
               2; }
               .thin-line            {stroke: #0F0F0F; shape-rendering: crispEdges}
               .filled               {fill: #1F1F1F; stroke: none;}
               text.terminal         {font-family: Verdana, Sans-serif;
               font-size: 12px;
               fill: #0A0A0A;
               font-weight: bold;
               }
               text.nonterminal      {font-family: Verdana, Sans-serif; font-style: italic;
               font-size: 12px;
               fill: #0D0D0D;
               }
               text.regexp           {font-family: Verdana, Sans-serif;
               font-size: 12px;
               fill: #0F0F0F;
               }
               rect, circle, polygon {fill: #1F1F1F; stroke: #1F1F1F;}
               rect.terminal         {fill: #CCCCCC; stroke: #1F1F1F;}
               rect.nonterminal      {fill: #E3E3E3; stroke: #1F1F1F;}
               rect.text             {fill: none; stroke: none;}
               polygon.regexp        {fill: #EFEFEF; stroke: #1F1F1F;}

            </style>
         </defs>

         <polygon points="11 17 3 13 3 21"></polygon>
         <polygon points="19 17 11 13 11 21"></polygon>
         <rect x="33" y="3" width="126" height="32" rx="10"></rect>
         <rect x="31" y="1" width="126" height="32" class="terminal" rx="10"></rect>
         <text class="terminal" x="41" y="21">yamlToXmlFile(</text><a xmlns:xlink="http://www.w3.org/1999/xlink" xlink:href="#obj" xlink:title="obj">
            <rect x="179" y="3" width="40" height="32"></rect>
            <rect x="177" y="1" width="40" height="32" class="nonterminal"></rect>
            <text class="nonterminal" x="187" y="21">obj</text></a><rect x="239" y="3" width="24" height="32" rx="10"></rect>
         <rect x="237" y="1" width="24" height="32" class="terminal" rx="10"></rect>
         <text class="terminal" x="247" y="21">,</text><a xmlns:xlink="http://www.w3.org/1999/xlink" xlink:href="#path" xlink:title="path">
            <rect x="283" y="3" width="48" height="32"></rect>
            <rect x="281" y="1" width="48" height="32" class="nonterminal"></rect>
            <text class="nonterminal" x="291" y="21">path</text></a><rect x="45" y="101" width="24" height="32" rx="10"></rect>
         <rect x="43" y="99" width="24" height="32" class="terminal" rx="10"></rect>
         <text class="terminal" x="53" y="119">,</text><a xmlns:xlink="http://www.w3.org/1999/xlink" xlink:href="#schema" xlink:title="schema">
            <rect x="89" y="101" width="68" height="32"></rect>
            <rect x="87" y="99" width="68" height="32" class="nonterminal"></rect>
            <text class="nonterminal" x="97" y="119">schema</text></a><rect x="197" y="133" width="24" height="32" rx="10"></rect>
         <rect x="195" y="131" width="24" height="32" class="terminal" rx="10"></rect>
         <text class="terminal" x="205" y="151">,</text><a xmlns:xlink="http://www.w3.org/1999/xlink" xlink:href="#anchorMap" xlink:title="anchorMap">
            <rect x="241" y="133" width="88" height="32"></rect>
            <rect x="239" y="131" width="88" height="32" class="nonterminal"></rect>
            <text class="nonterminal" x="249" y="151">anchorMap</text></a><rect x="369" y="165" width="24" height="32" rx="10"></rect>
         <rect x="367" y="163" width="24" height="32" class="terminal" rx="10"></rect>
         <text class="terminal" x="377" y="183">,</text><a xmlns:xlink="http://www.w3.org/1999/xlink" xlink:href="#directivesMap" xlink:title="directivesMap">
            <rect x="413" y="165" width="106" height="32"></rect>
            <rect x="411" y="163" width="106" height="32" class="nonterminal"></rect>
            <text class="nonterminal" x="421" y="183">directivesMap</text></a><rect x="559" y="197" width="24" height="32" rx="10"></rect>
         <rect x="557" y="195" width="24" height="32" class="terminal" rx="10"></rect>
         <text class="terminal" x="567" y="215">,</text><a xmlns:xlink="http://www.w3.org/1999/xlink" xlink:href="#mergeSourceMap" xlink:title="mergeSourceMap">
            <rect x="603" y="197" width="130" height="32"></rect>
            <rect x="601" y="195" width="130" height="32" class="nonterminal"></rect>
            <text class="nonterminal" x="611" y="215">mergeSourceMap</text></a><rect x="833" y="69" width="26" height="32" rx="10"></rect>
         <rect x="831" y="67" width="26" height="32" class="terminal" rx="10"></rect>
         <text class="terminal" x="841" y="87">)</text>
         <path class="line" d="m19 17 h2 m0 0 h10 m126 0 h10 m0 0 h10 m40 0 h10 m0 0 h10 m24 0 h10 m0 0 h10 m48 0 h10 m2 0 l2 0 m2 0 l2 0 m2 0 l2 0 m-350 66 l2 0 m2 0 l2 0 m2 0 l2 0 m22 0 h10 m0 0 h758 m-788 0 h20 m768 0 h20 m-808 0 q10 0 10 10 m788 0 q0 -10 10 -10 m-798 10 v12 m788 0 v-12 m-788 12 q0 10 10 10 m768 0 q10 0 10 -10 m-778 10 h10 m24 0 h10 m0 0 h10 m68 0 h10 m20 0 h10 m0 0 h586 m-616 0 h20 m596 0 h20 m-636 0 q10 0 10 10 m616 0 q0 -10 10 -10 m-626 10 v12 m616 0 v-12 m-616 12 q0 10 10 10 m596 0 q10 0 10 -10 m-606 10 h10 m24 0 h10 m0 0 h10 m88 0 h10 m20 0 h10 m0 0 h394 m-424 0 h20 m404 0 h20 m-444 0 q10 0 10 10 m424 0 q0 -10 10 -10 m-434 10 v12 m424 0 v-12 m-424 12 q0 10 10 10 m404 0 q10 0 10 -10 m-414 10 h10 m24 0 h10 m0 0 h10 m106 0 h10 m20 0 h10 m0 0 h184 m-214 0 h20 m194 0 h20 m-234 0 q10 0 10 10 m214 0 q0 -10 10 -10 m-224 10 v12 m214 0 v-12 m-214 12 q0 10 10 10 m194 0 q10 0 10 -10 m-204 10 h10 m24 0 h10 m0 0 h10 m130 0 h10 m80 -128 h10 m26 0 h10 m3 0 h-3"></path>
         <polygon points="877 83 885 79 885 87"></polygon>
         <polygon points="877 83 869 79 869 87"></polygon>
</svg>