<svg xmlns="http://www.w3.org/2000/svg" width="267" height="125">
         <defs>
            <style type="text/css">
               @namespace "http://www.w3.org/2000/svg";
               .line                 {fill: none; stroke: #1F1F1F;}
               .bold-line            {stroke: #0A0A0A; shape-rendering: crispEdges; stroke-width:
               2; }
               .thin-line            {stroke: #0F0F0F; shape-rendering: crispEdges}
               .filled               {fill: #1F1F1F; stroke: none;}
               text.terminal         {font-family: Verdana, Sans-serif;
               font-size: 12px;
               fill: #0A0A0A;
               font-weight: bold;
               }
               text.nonterminal      {font-family: Verdana, Sans-serif; font-style: italic;
               font-size: 12px;
               fill: #0D0D0D;
               }
               text.regexp           {font-family: Verdana, Sans-serif;
               font-size: 12px;
               fill: #0F0F0F;
               }
               rect, circle, polygon {fill: #1F1F1F; stroke: #1F1F1F;}
               rect.terminal         {fill: #CCCCCC; stroke: #1F1F1F;}
               rect.nonterminal      {fill: #E3E3E3; stroke: #1F1F1F;}
               rect.text             {fill: none; stroke: none;}
               polygon.regexp        {fill: #EFEFEF; stroke: #1F1F1F;}

            </style>
         </defs>

         <polygon points="9 17 1 13 1 21"></polygon>
         <polygon points="17 17 9 13 9 21"></polygon>
         <rect x="51" y="3" width="46" height="32" rx="10"></rect>
         <rect x="49" y="1" width="46" height="32" class="terminal" rx="10"></rect>
         <text class="terminal" x="59" y="21">\=(</text>
         <rect x="51" y="47" width="48" height="32" rx="10"></rect>
         <rect x="49" y="45" width="48" height="32" class="terminal" rx="10"></rect>
         <text class="terminal" x="59" y="65">&lt;&gt;(</text>
         <rect x="51" y="91" width="48" height="32" rx="10"></rect>
         <rect x="49" y="89" width="48" height="32" class="terminal" rx="10"></rect>
         <text class="terminal" x="59" y="109">&gt;&lt;(</text><a xmlns:xlink="http://www.w3.org/1999/xlink" xlink:href="#other" xlink:title="other">
            <rect x="139" y="3" width="54" height="32"></rect>
            <rect x="137" y="1" width="54" height="32" class="nonterminal"></rect>
            <text class="nonterminal" x="147" y="21">other</text></a><rect x="213" y="3" width="26" height="32" rx="10"></rect>
         <rect x="211" y="1" width="26" height="32" class="terminal" rx="10"></rect>
         <text class="terminal" x="221" y="21">)</text>
         <path class="line" d="m17 17 h2 m20 0 h10 m46 0 h10 m0 0 h2 m-88 0 h20 m68 0 h20 m-108 0 q10 0 10 10 m88 0 q0 -10 10 -10 m-98 10 v24 m88 0 v-24 m-88 24 q0 10 10 10 m68 0 q10 0 10 -10 m-78 10 h10 m48 0 h10 m-78 -10 v20 m88 0 v-20 m-88 20 v24 m88 0 v-24 m-88 24 q0 10 10 10 m68 0 q10 0 10 -10 m-78 10 h10 m48 0 h10 m20 -88 h10 m54 0 h10 m0 0 h10 m26 0 h10 m3 0 h-3"></path>
         <polygon points="257 17 265 13 265 21"></polygon>
         <polygon points="257 17 249 13 249 21"></polygon>
</svg>