<svg xmlns="http://www.w3.org/2000/svg" width="855" height="133">
         <defs>
            <style type="text/css">
               @namespace "http://www.w3.org/2000/svg";
               .line                 {fill: none; stroke: #1F1F1F;}
               .bold-line            {stroke: #0A0A0A; shape-rendering: crispEdges; stroke-width:
               2; }
               .thin-line            {stroke: #0F0F0F; shape-rendering: crispEdges}
               .filled               {fill: #1F1F1F; stroke: none;}
               text.terminal         {font-family: Verdana, Sans-serif;
               font-size: 12px;
               fill: #0A0A0A;
               font-weight: bold;
               }
               text.nonterminal      {font-family: Verdana, Sans-serif; font-style: italic;
               font-size: 12px;
               fill: #0D0D0D;
               }
               text.regexp           {font-family: Verdana, Sans-serif;
               font-size: 12px;
               fill: #0F0F0F;
               }
               rect, circle, polygon {fill: #1F1F1F; stroke: #1F1F1F;}
               rect.terminal         {fill: #CCCCCC; stroke: #1F1F1F;}
               rect.nonterminal      {fill: #E3E3E3; stroke: #1F1F1F;}
               rect.text             {fill: none; stroke: none;}
               polygon.regexp        {fill: #EFEFEF; stroke: #1F1F1F;}

            </style>
         </defs>

         <polygon points="9 17 1 13 1 21"></polygon>
         <polygon points="17 17 9 13 9 21"></polygon>
         <rect x="31" y="3" width="74" height="32" rx="10"></rect>
         <rect x="29" y="1" width="74" height="32" class="terminal" rx="10"></rect>
         <text class="terminal" x="39" y="21">toYaml(</text><a xmlns:xlink="http://www.w3.org/1999/xlink" xlink:href="#obj" xlink:title="obj">
            <rect x="125" y="3" width="40" height="32"></rect>
            <rect x="123" y="1" width="40" height="32" class="nonterminal"></rect>
            <text class="nonterminal" x="133" y="21">obj</text></a><rect x="205" y="35" width="24" height="32" rx="10"></rect>
         <rect x="203" y="33" width="24" height="32" class="terminal" rx="10"></rect>
         <text class="terminal" x="213" y="53">,</text><a xmlns:xlink="http://www.w3.org/1999/xlink" xlink:href="#indentSize" xlink:title="indentSize">
            <rect x="249" y="35" width="86" height="32"></rect>
            <rect x="247" y="33" width="86" height="32" class="nonterminal"></rect>
            <text class="nonterminal" x="257" y="53">indentSize</text></a><rect x="375" y="67" width="24" height="32" rx="10"></rect>
         <rect x="373" y="65" width="24" height="32" class="terminal" rx="10"></rect>
         <text class="terminal" x="383" y="85">,</text><a xmlns:xlink="http://www.w3.org/1999/xlink" xlink:href="#anchorMap" xlink:title="anchorMap">
            <rect x="419" y="67" width="88" height="32"></rect>
            <rect x="417" y="65" width="88" height="32" class="nonterminal"></rect>
            <text class="nonterminal" x="427" y="85">anchorMap</text></a><rect x="547" y="99" width="24" height="32" rx="10"></rect>
         <rect x="545" y="97" width="24" height="32" class="terminal" rx="10"></rect>
         <text class="terminal" x="555" y="117">,</text><a xmlns:xlink="http://www.w3.org/1999/xlink" xlink:href="#mergeSourceMap" xlink:title="mergeSourceMap">
            <rect x="591" y="99" width="130" height="32"></rect>
            <rect x="589" y="97" width="130" height="32" class="nonterminal"></rect>
            <text class="nonterminal" x="599" y="117">mergeSourceMap</text></a><rect x="801" y="3" width="26" height="32" rx="10"></rect>
         <rect x="799" y="1" width="26" height="32" class="terminal" rx="10"></rect>
         <text class="terminal" x="809" y="21">)</text>
         <path class="line" d="m17 17 h2 m0 0 h10 m74 0 h10 m0 0 h10 m40 0 h10 m20 0 h10 m0 0 h566 m-596 0 h20 m576 0 h20 m-616 0 q10 0 10 10 m596 0 q0 -10 10 -10 m-606 10 v12 m596 0 v-12 m-596 12 q0 10 10 10 m576 0 q10 0 10 -10 m-586 10 h10 m24 0 h10 m0 0 h10 m86 0 h10 m20 0 h10 m0 0 h376 m-406 0 h20 m386 0 h20 m-426 0 q10 0 10 10 m406 0 q0 -10 10 -10 m-416 10 v12 m406 0 v-12 m-406 12 q0 10 10 10 m386 0 q10 0 10 -10 m-396 10 h10 m24 0 h10 m0 0 h10 m88 0 h10 m20 0 h10 m0 0 h184 m-214 0 h20 m194 0 h20 m-234 0 q10 0 10 10 m214 0 q0 -10 10 -10 m-224 10 v12 m214 0 v-12 m-214 12 q0 10 10 10 m194 0 q10 0 10 -10 m-204 10 h10 m24 0 h10 m0 0 h10 m130 0 h10 m60 -96 h10 m26 0 h10 m3 0 h-3"></path>
         <polygon points="845 17 853 13 853 21"></polygon>
         <polygon points="845 17 837 13 837 21"></polygon>
</svg>