<svg xmlns="http://www.w3.org/2000/svg" width="917" height="165">
         <defs>
            <style type="text/css">
               @namespace "http://www.w3.org/2000/svg";
               .line                 {fill: none; stroke: #1F1F1F;}
               .bold-line            {stroke: #0A0A0A; shape-rendering: crispEdges; stroke-width:
               2; }
               .thin-line            {stroke: #0F0F0F; shape-rendering: crispEdges}
               .filled               {fill: #1F1F1F; stroke: none;}
               text.terminal         {font-family: Verdana, Sans-serif;
               font-size: 12px;
               fill: #0A0A0A;
               font-weight: bold;
               }
               text.nonterminal      {font-family: Verdana, Sans-serif; font-style: italic;
               font-size: 12px;
               fill: #0D0D0D;
               }
               text.regexp           {font-family: Verdana, Sans-serif;
               font-size: 12px;
               fill: #0F0F0F;
               }
               rect, circle, polygon {fill: #1F1F1F; stroke: #1F1F1F;}
               rect.terminal         {fill: #CCCCCC; stroke: #1F1F1F;}
               rect.nonterminal      {fill: #E3E3E3; stroke: #1F1F1F;}
               rect.text             {fill: none; stroke: none;}
               polygon.regexp        {fill: #EFEFEF; stroke: #1F1F1F;}

            </style>
         </defs>

         <polygon points="9 17 1 13 1 21"></polygon>
         <polygon points="17 17 9 13 9 21"></polygon>
         <rect x="31" y="3" width="48" height="32" rx="10"></rect>
         <rect x="29" y="1" width="48" height="32" class="terminal" rx="10"></rect>
         <text class="terminal" x="39" y="21">init(</text><a xmlns:xlink="http://www.w3.org/1999/xlink" xlink:href="#schema" xlink:title="schema">
            <rect x="119" y="35" width="68" height="32"></rect>
            <rect x="117" y="33" width="68" height="32" class="nonterminal"></rect>
            <text class="nonterminal" x="127" y="53">schema</text></a><rect x="227" y="67" width="24" height="32" rx="10"></rect>
         <rect x="225" y="65" width="24" height="32" class="terminal" rx="10"></rect>
         <text class="terminal" x="235" y="85">,</text><a xmlns:xlink="http://www.w3.org/1999/xlink" xlink:href="#anchorMap" xlink:title="anchorMap">
            <rect x="271" y="67" width="88" height="32"></rect>
            <rect x="269" y="65" width="88" height="32" class="nonterminal"></rect>
            <text class="nonterminal" x="279" y="85">anchorMap</text></a><rect x="399" y="99" width="24" height="32" rx="10"></rect>
         <rect x="397" y="97" width="24" height="32" class="terminal" rx="10"></rect>
         <text class="terminal" x="407" y="117">,</text><a xmlns:xlink="http://www.w3.org/1999/xlink" xlink:href="#directivesMap" xlink:title="directivesMap">
            <rect x="443" y="99" width="106" height="32"></rect>
            <rect x="441" y="97" width="106" height="32" class="nonterminal"></rect>
            <text class="nonterminal" x="451" y="117">directivesMap</text></a><rect x="589" y="131" width="24" height="32" rx="10"></rect>
         <rect x="587" y="129" width="24" height="32" class="terminal" rx="10"></rect>
         <text class="terminal" x="597" y="149">,</text><a xmlns:xlink="http://www.w3.org/1999/xlink" xlink:href="#mergeSourceMap" xlink:title="mergeSourceMap">
            <rect x="633" y="131" width="130" height="32"></rect>
            <rect x="631" y="129" width="130" height="32" class="nonterminal"></rect>
            <text class="nonterminal" x="641" y="149">mergeSourceMap</text></a><rect x="863" y="3" width="26" height="32" rx="10"></rect>
         <rect x="861" y="1" width="26" height="32" class="terminal" rx="10"></rect>
         <text class="terminal" x="871" y="21">)</text>
         <path class="line" d="m17 17 h2 m0 0 h10 m48 0 h10 m20 0 h10 m0 0 h714 m-744 0 h20 m724 0 h20 m-764 0 q10 0 10 10 m744 0 q0 -10 10 -10 m-754 10 v12 m744 0 v-12 m-744 12 q0 10 10 10 m724 0 q10 0 10 -10 m-734 10 h10 m68 0 h10 m20 0 h10 m0 0 h586 m-616 0 h20 m596 0 h20 m-636 0 q10 0 10 10 m616 0 q0 -10 10 -10 m-626 10 v12 m616 0 v-12 m-616 12 q0 10 10 10 m596 0 q10 0 10 -10 m-606 10 h10 m24 0 h10 m0 0 h10 m88 0 h10 m20 0 h10 m0 0 h394 m-424 0 h20 m404 0 h20 m-444 0 q10 0 10 10 m424 0 q0 -10 10 -10 m-434 10 v12 m424 0 v-12 m-424 12 q0 10 10 10 m404 0 q10 0 10 -10 m-414 10 h10 m24 0 h10 m0 0 h10 m106 0 h10 m20 0 h10 m0 0 h184 m-214 0 h20 m194 0 h20 m-234 0 q10 0 10 10 m214 0 q0 -10 10 -10 m-224 10 v12 m214 0 v-12 m-214 12 q0 10 10 10 m194 0 q10 0 10 -10 m-204 10 h10 m24 0 h10 m0 0 h10 m130 0 h10 m80 -128 h10 m26 0 h10 m3 0 h-3"></path>
         <polygon points="907 17 915 13 915 21"></polygon>
         <polygon points="907 17 899 13 899 21"></polygon>
</svg>